<svg xmlns="http://www.w3.org/2000/svg" width="64" height="64" fill="none" xmlns:v="https://vecta.io/nano"><path d="M45.535 41.828a14.61 14.61 0 0 0-3.148-4.668c-1.338-1.341-2.923-2.41-4.668-3.149-.016-.008-.031-.012-.047-.02 2.434-1.758 4.016-4.621 4.016-7.852A9.69 9.69 0 0 0 32 16.453a9.69 9.69 0 0 0-9.688 9.688 9.68 9.68 0 0 0 4.016 7.855c-.016.008-.031.012-.047.02-1.75.738-3.32 1.797-4.668 3.148-1.341 1.338-2.41 2.923-3.148 4.668a14.52 14.52 0 0 0-1.152 5.395c-.001.042.006.083.021.122s.038.074.067.104a.31.31 0 0 0 .102.07c.038.016.08.025.121.025h2.344c.172 0 .309-.137.313-.305.078-3.016 1.289-5.84 3.43-7.98A11.64 11.64 0 0 1 32 35.828a11.64 11.64 0 0 1 8.289 3.434c2.141 2.141 3.352 4.965 3.43 7.98a.31.31 0 0 0 .313.305h2.344c.042 0 .083-.008.121-.025a.31.31 0 0 0 .102-.07c.029-.03.052-.065.067-.104s.023-.08.022-.122a14.56 14.56 0 0 0-1.152-5.398zM32 32.859c-1.793 0-3.481-.699-4.75-1.969s-1.969-2.957-1.969-4.75.699-3.48 1.969-4.75 2.957-1.969 4.75-1.969 3.48.699 4.75 1.969 1.969 2.957 1.969 4.75-.699 3.48-1.969 4.75-2.957 1.969-4.75 1.969z" fill="#1254ff"/><circle cx="32" cy="32" r="31.5" stroke="#000" stroke-opacity=".1"/><path d="M42.945 1.93A32 32 0 0 0 2.745 19.032 32 32 0 0 0 17.07 60.304l.448-.849A31.04 31.04 0 0 1 3.623 19.421 31.04 31.04 0 0 1 42.616 2.832l.328-.902z" fill="#1254ff"/></svg>