<svg xmlns="http://www.w3.org/2000/svg" width="64" height="64" fill="none" xmlns:v="https://vecta.io/nano"><g clip-path="url(#A)"><path d="M32.95 16.688L32 13.799l-.95 2.888-3.555 10.808-10.808 3.555-2.888.95 2.888.95 10.808 3.555 3.555 10.808.95 2.888.95-2.888 3.555-10.808 10.808-3.555 2.888-.95-2.888-.95-10.808-3.555-3.555-10.808z" stroke="#1254ff" stroke-width="2"/></g><circle cx="32" cy="32" r="31.5" stroke="#000" stroke-opacity=".1"/><path d="M56.513 52.569a32 32 0 0 0 6.991-26.178A32 32 0 0 0 47.909 4.235l-.477.833A31.04 31.04 0 0 1 62.56 26.56a31.04 31.04 0 0 1-6.782 25.392l.735.617z" fill="#1254ff"/><defs><clipPath id="A"><path fill="#fff" transform="translate(12 12)" d="M0 0h40v40H0z"/></clipPath></defs></svg>