<svg xmlns="http://www.w3.org/2000/svg" width="64" height="64" fill="none" xmlns:v="https://vecta.io/nano"><path d="M40.317 20.333l1.05 2.283 2.283 1.05-2.283 1.05L40.317 27l-1.05-2.283-2.283-1.05 2.283-1.05 1.05-2.283zm5.017 15c1.833 0 3.333-1.5 3.333-3.333s-3.333-6.667-3.333-6.667S42 30.167 42 32s1.5 3.333 3.333 3.333zm-15-13.167v-3.5h3.333a4.88 4.88 0 0 1 2.583.75l2.383-2.383c-1.423-1.098-3.169-1.696-4.967-1.7H24.5v3.333H27v3.517c-2.967.617-5.333 2.8-6.25 5.65h3.6c.883-1.483 2.467-2.5 4.317-2.5a4.99 4.99 0 0 1 4.983 4.833l3.35 1.25v-1.083c0-1.921-.663-3.783-1.878-5.271s-2.907-2.511-4.789-2.895zm18.333 21.5v1.667L35.333 49.5l-11.667-3.233v2.4h-10V30.333H26.95l10.267 3.833c.915.345 1.703.96 2.26 1.764s.856 1.758.857 2.736h3.333c2.767 0 5 2.233 5 5zm-28.333 1.667V33.667H17v11.667h3.333zm24.833-2.383a1.68 1.68 0 0 0-1.5-.933H34.75c-.9 0-1.783-.15-2.633-.433l-3.967-1.317L29.2 37.1l3.967 1.317c.517.167 3.833.25 3.833.25 0-.617-.383-1.167-.95-1.383l-9.7-3.617h-2.683V42.8l11.617 3.217 9.883-3.067z" fill="#1254ff"/><circle cx="32" cy="32" r="31.5" stroke="#000" stroke-opacity=".1"/><path d="M59.713 16A32 32 0 0 0 17.925 3.262 32 32 0 0 0 2.097 20.606a32 32 0 0 0 .272 23.479l.889-.362A31.04 31.04 0 0 1 18.347 4.124 31.04 31.04 0 0 1 58.881 16.48l.831-.48z" fill="#1254ff"/></svg>