<svg xmlns="http://www.w3.org/2000/svg" width="64" height="64" fill="none" xmlns:v="https://vecta.io/nano"><path d="M24.5 26.573c.578-.637 1.525-1.24 2.917-1.24 1.92 0 3.157 1.32 3.592 2.768.422 1.412.167 3.158-1.033 4.363a13.47 13.47 0 0 1-1.322 1.117l-.067.052-1.25 1.05c-.425.427-.773.892-.975 1.483h3.555a1.25 1.25 0 1 1 0 2.5h-5a1.25 1.25 0 0 1-1.25-1.25c0-2.078.873-3.472 1.907-4.502.493-.493 1.03-.908 1.483-1.26l.005-.003 1.142-.95c.453-.457.612-1.208.41-1.883-.192-.635-.617-.985-1.197-.985-.588 0-.892.228-1.067.422-.102.113-.186.242-.247.382v.005a1.25 1.25 0 1 1-2.38-.77l.058-.16c.171-.418.414-.803.717-1.138h.002zm9.583-1.24a1.25 1.25 0 0 1 1.25 1.25v4.583h2.5v-4.583a1.25 1.25 0 1 1 2.5 0v10.783a1.25 1.25 0 1 1-2.5 0v-3.7h-3.75a1.25 1.25 0 0 1-1.25-1.25v-5.833a1.25 1.25 0 0 1 1.25-1.25zM48.667 32A16.67 16.67 0 0 0 32 15.333 16.67 16.67 0 0 0 15.333 32 16.67 16.67 0 0 0 32 48.667 16.67 16.67 0 0 0 48.667 32zm-30.833 0c0-3.757 1.492-7.36 4.149-10.017s6.26-4.149 10.017-4.149 7.361 1.492 10.017 4.149A14.17 14.17 0 0 1 46.166 32c0 3.757-1.492 7.361-4.149 10.017A14.17 14.17 0 0 1 32 46.166c-3.757 0-7.36-1.492-10.017-4.149S17.834 35.757 17.834 32z" fill="#ffb21e"/><circle cx="32" cy="32" r="31.5" stroke="#000" stroke-opacity=".1"/><path d="M1.93 21.055a32 32 0 0 0 17.103 40.2A32 32 0 0 0 60.304 46.93l-.849-.448a31.04 31.04 0 0 1-40.033 13.895A31.04 31.04 0 0 1 2.832 21.384l-.902-.328z" fill="#ffb21e"/></svg>