<svg xmlns="http://www.w3.org/2000/svg" width="64" height="64" fill="none" xmlns:v="https://vecta.io/nano"><path d="M30.333 33.667V27a1.67 1.67 0 0 0-1.667-1.667H22V22h6.667a1.67 1.67 0 0 0 1.667-1.667 1.67 1.67 0 0 0-1.667-1.667h-2.5A1.67 1.67 0 0 0 24.5 17a1.67 1.67 0 0 0-1.667 1.667h-2.5a1.67 1.67 0 0 0-1.667 1.667V27a1.67 1.67 0 0 0 1.667 1.667H27V32h-6.667a1.67 1.67 0 0 0-1.667 1.667 1.67 1.67 0 0 0 1.667 1.667h2.5A1.67 1.67 0 0 0 24.5 37a1.67 1.67 0 0 0 1.667-1.667h2.5a1.67 1.67 0 0 0 1.667-1.667zm13.133.367l-8.25 8.25-3.533-3.533a1.66 1.66 0 0 0-2.35 0 1.66 1.66 0 0 0 0 2.35l4.717 4.717a1.66 1.66 0 0 0 2.35 0l9.433-9.433a1.66 1.66 0 0 0 .487-1.175 1.66 1.66 0 0 0-.487-1.175 1.68 1.68 0 0 0-2.367 0z" fill="#ffb21e"/><circle cx="32" cy="32" r="31.5" stroke="#000" stroke-opacity=".1"/><path d="M64 32a32 32 0 0 1-20.379 29.815 32 32 0 0 1-35.181-8.16l.707-.65a31.04 31.04 0 0 0 34.125 7.916A31.04 31.04 0 0 0 63.04 32H64z" fill="#ffb21e"/></svg>