<svg xmlns="http://www.w3.org/2000/svg" width="64" height="64" fill="none" xmlns:v="https://vecta.io/nano"><circle cx="32" cy="32" r="31.5" stroke="#000" stroke-opacity=".1"/><g fill="#ffb21e"><path d="M26.443.486a32 32 0 0 0 .765 63.154l.144-.949a31.04 31.04 0 0 1-.742-61.259l-.167-.945zM38.25 47a2.5 2.5 0 1 0 0-5 2.5 2.5 0 1 0 0 5zm0-25a2.5 2.5 0 1 0 0-5 2.5 2.5 0 1 0 0 5zM17 34.5a2.5 2.5 0 1 0 0-5 2.5 2.5 0 1 0 0 5z"/><path d="M47 27c-1.105.003-2.179.373-3.051 1.052s-1.496 1.628-1.771 2.698h-5.355c-.177-.705-.507-1.362-.966-1.926a4.96 4.96 0 0 0-1.692-1.334c-.655-.315-1.371-.483-2.098-.49s-1.446.145-2.108.446l-3.971-4.963c.653-.858 1.009-1.905 1.012-2.984a5 5 0 0 0-3.087-4.619 5 5 0 0 0-5.449 1.084 5 5 0 0 0-1.084 5.449A5 5 0 0 0 22 24.5a4.95 4.95 0 0 0 2.043-.446l3.97 4.963c-.656.856-1.012 1.905-1.012 2.984s.356 2.127 1.012 2.984l-3.97 4.962A4.95 4.95 0 0 0 22 39.5a5 5 0 0 0-4.619 3.087 5 5 0 0 0 1.084 5.449 5 5 0 0 0 5.449 1.084A5 5 0 0 0 27 44.5c-.004-1.078-.359-2.126-1.012-2.984l3.97-4.962a4.96 4.96 0 0 0 2.108.446c.727-.008 1.443-.175 2.098-.49a4.96 4.96 0 0 0 2.658-3.26h5.355a4.99 4.99 0 0 0 3.833 3.632 4.99 4.99 0 0 0 4.949-1.842 4.99 4.99 0 0 0 .526-5.254A4.99 4.99 0 0 0 47 27zm-27.5-7.5a2.5 2.5 0 0 1 1.543-2.31 2.5 2.5 0 0 1 2.725.542 2.5 2.5 0 0 1 .542 2.725A2.5 2.5 0 0 1 22 22c-.663-.001-1.298-.264-1.767-.733s-.732-1.104-.733-1.767zM22 47a2.5 2.5 0 0 1-2.31-1.543 2.5 2.5 0 0 1 .542-2.724 2.5 2.5 0 0 1 2.725-.542A2.5 2.5 0 0 1 24.5 44.5c-.001.663-.264 1.298-.733 1.767S22.663 46.999 22 47zm10-12.5a2.5 2.5 0 0 1-2.31-1.543 2.5 2.5 0 0 1 .542-2.724 2.5 2.5 0 0 1 2.724-.542A2.5 2.5 0 0 1 34.5 32c-.001.663-.264 1.298-.733 1.767s-1.104.732-1.767.733zm15 0a2.5 2.5 0 0 1-2.31-1.543 2.5 2.5 0 0 1 .542-2.724 2.5 2.5 0 0 1 2.724-.542A2.5 2.5 0 0 1 49.5 32c-.001.663-.264 1.298-.733 1.767s-1.104.732-1.767.733z"/></g></svg>